<svg width="46" height="39" viewBox="0 0 46 39" fill="none" xmlns="http://www.w3.org/2000/svg">
<path fill-rule="evenodd" clip-rule="evenodd" d="M33.1532 0C35.7358 0 38.1022 1.47234 39.2858 3.81567L44.0624 13.2719C45.262 14.5393 46 16.2648 46 18.1664L46 34.3038C46 36.8975 43.9405 39 41.4 39H39.1359C36.5954 39 34.5359 36.8975 34.5359 34.3038V32.8731H11.464V34.3038C11.464 36.8975 9.40456 39 6.86405 39H4.6C2.05949 39 0 36.8975 0 34.3038V18.1664C0 16.2648 0.738052 14.5392 1.93766 13.2719L6.7142 3.81567C7.89787 1.47234 10.2642 0 12.8468 0H33.1532ZM12.8468 3.05251H33.1532C34.6167 3.05251 35.9576 3.88684 36.6284 5.21472L39.5688 11.036H6.43121L9.37166 5.21472C10.0424 3.88683 11.3833 3.05251 12.8468 3.05251ZM37.5259 32.8731H43.01V34.3038C43.01 35.2116 42.2892 35.9475 41.4 35.9475H39.1359C38.2468 35.9475 37.5259 35.2116 37.5259 34.3038V32.8731ZM2.99 32.8731H8.47405V34.3038C8.47405 35.2116 7.75323 35.9475 6.86405 35.9475H4.6C3.71082 35.9475 2.99 35.2116 2.99 34.3038V32.8731ZM6.9 14.1747H39.1C40.9911 14.1747 42.5686 15.5452 42.9315 17.3664H38.1707C37.3451 17.3664 36.6757 18.0497 36.6757 18.8927C36.6757 19.7356 37.3451 20.4189 38.1707 20.4189H43.01V29.8206H36.9735C36.9564 29.7657 36.9372 29.7109 36.9159 29.6563L33.8525 21.803C32.8073 19.1234 30.2674 17.365 27.4422 17.365H18.5578C15.7326 17.365 13.1927 19.1234 12.1475 21.803L9.08407 29.6563C9.06276 29.7109 9.0436 29.7657 9.02654 29.8206H2.99V20.4189H7.82925C8.65491 20.4189 9.32425 19.7356 9.32425 18.8927C9.32425 18.0497 8.65491 17.3664 7.82925 17.3664H3.06854C3.43144 15.5452 5.00894 14.1747 6.9 14.1747ZM12.2383 29.8206H33.7617L31.0747 22.9324C30.4824 21.4139 29.0431 20.4175 27.4422 20.4175H18.5578C16.9569 20.4175 15.5176 21.4139 14.9253 22.9324L12.2383 29.8206Z" fill="#C2D4EF"/>
</svg>
