<svg width="37" height="41" viewBox="0 0 37 41" fill="none" xmlns="http://www.w3.org/2000/svg">
<path fill-rule="evenodd" clip-rule="evenodd" d="M20.1442 0.506182C19.13 -0.169318 17.835 -0.168682 16.8214 0.50782L1.44068 10.7731C-1.1745 12.5185 0.00388951 16.7656 3.10333 16.7656H33.8967C36.9976 16.7656 38.1749 12.5151 35.5569 10.7714L20.1442 0.506182ZM18.4224 3.14861C18.46 3.12356 18.5079 3.12353 18.5455 3.14855L33.9582 13.4138C33.9891 13.4344 34.001 13.4493 34.004 13.4534L34.0076 13.459L34.0102 13.4651C34.0136 13.4754 34.0188 13.5058 34.0068 13.549C33.9949 13.5922 33.9749 13.615 33.9668 13.6218L33.9605 13.6261L33.9557 13.6282C33.951 13.6299 33.9334 13.6358 33.8967 13.6358H3.10333C3.0667 13.6358 3.0491 13.6299 3.0444 13.6282C3.03921 13.6263 3.03324 13.6218 3.03324 13.6218C3.02513 13.615 3.00515 13.5922 2.99317 13.5491C2.9812 13.5059 2.98643 13.4755 2.98978 13.4652C2.98978 13.4652 2.99254 13.458 2.99594 13.4535C2.99902 13.4494 3.01084 13.4345 3.04175 13.4139L18.4224 3.14861Z" fill="#C2D4EF"/>
<path d="M18.5049 19.8676C19.3286 19.8676 19.9964 20.5682 19.9964 21.4325V33.1873C19.9964 34.0516 19.3286 34.7522 18.5049 34.7522C17.6811 34.7522 17.0133 34.0516 17.0133 33.1873V21.4325C17.0133 20.5682 17.6811 19.8676 18.5049 19.8676Z" fill="#C2D4EF"/>
<path d="M0.117645 39.4351C0.117645 38.5708 0.785421 37.8702 1.60916 37.8702H35.4005C36.2243 37.8702 36.8921 38.5708 36.8921 39.4351C36.8921 40.2994 36.2243 41 35.4005 41H1.60916C0.785421 41 0.117645 40.2994 0.117645 39.4351Z" fill="#C2D4EF"/>
<path d="M9.9751 21.4325C9.9751 20.5682 9.30732 19.8676 8.48358 19.8676C7.65983 19.8676 6.99206 20.5682 6.99206 21.4325V33.1873C6.99206 34.0516 7.65983 34.7522 8.48358 34.7522C9.30732 34.7522 9.9751 34.0516 9.9751 33.1873V21.4325Z" fill="#C2D4EF"/>
<path d="M28.5263 19.8676C29.35 19.8676 30.0178 20.5682 30.0178 21.4325V33.1873C30.0178 34.0516 29.35 34.7522 28.5263 34.7522C27.7025 34.7522 27.0348 34.0516 27.0348 33.1873V21.4325C27.0348 20.5682 27.7025 19.8676 28.5263 19.8676Z" fill="#C2D4EF"/>
</svg>
