<svg width="45" height="36" viewBox="0 0 45 36" fill="none" xmlns="http://www.w3.org/2000/svg">
<path fill-rule="evenodd" clip-rule="evenodd" d="M0 6.75003C0 3.02209 3.35786 0 7.5 0H37.5C41.6421 0 45 3.02209 45 6.75002V22.505C45 26.2329 41.6421 29.255 37.5 29.255H27.5V33.075H30.8781C31.7756 33.075 32.5031 33.7298 32.5031 34.5375C32.5031 35.3452 31.7756 36 30.8781 36H14.1219C13.2244 36 12.4969 35.3452 12.4969 34.5375C12.4969 33.7298 13.2244 33.075 14.1219 33.075H17.5V29.255H7.5C3.35787 29.255 0 26.2329 0 22.505V6.75003ZM7.5 2.92501H37.5C39.8472 2.92501 41.75 4.63753 41.75 6.75002V20.4747H3.25V6.75003C3.25 4.63753 5.15279 2.92501 7.5 2.92501ZM3.36692 23.3997C3.81453 25.0806 5.49515 26.33 7.5 26.33H37.5C39.5048 26.33 41.1855 25.0806 41.6331 23.3997H3.36692ZM24.25 29.9251V33.075H20.75V29.9251H24.25Z" fill="#C2D4EF"/>
</svg>
