<svg width="45" height="45" viewBox="0 0 45 45" fill="none" xmlns="http://www.w3.org/2000/svg">
<path fill-rule="evenodd" clip-rule="evenodd" d="M5.09521 19.2017C3.34204 18.3028 3.32429 15.8033 5.0645 14.8796L19.863 7.02492C21.5121 6.14957 23.4881 6.14957 25.1373 7.02491L39.9357 14.8796C40.6484 15.2579 41.0662 15.9004 41.1908 16.589C41.2293 16.7077 41.2502 16.8344 41.2502 16.9659L41.3029 28.7755C41.3029 29.4486 40.7572 29.9942 40.0841 29.9942C39.411 29.9942 38.8654 29.4486 38.8654 28.7755L38.8251 19.7554L34.9313 21.7517V29.7481C34.9313 31.443 34.1802 33.0508 32.8802 34.1383C26.8509 39.1822 18.0742 39.1822 12.045 34.1383C10.745 33.0508 9.99383 31.443 9.99383 29.7481V21.7132L5.09521 19.2017ZM6.20728 17.0326L21.0057 9.17793C21.9403 8.6819 23.06 8.6819 23.9945 9.17793L38.793 17.0326L23.9544 24.6404C23.0414 25.1085 21.9589 25.1085 21.0459 24.6404L6.20728 17.0326ZM12.4313 22.9629V29.7481C12.4313 30.7213 12.8626 31.6443 13.609 32.2687C18.7331 36.5554 26.1921 36.5554 31.3162 32.2687C32.0626 31.6443 32.4938 30.7213 32.4938 29.7481V23.0014L25.0664 26.8094C23.4553 27.6355 21.545 27.6355 19.9338 26.8094L12.4313 22.9629Z" fill="#C2D4EF"/>
</svg>
