<svg xmlns="http://www.w3.org/2000/svg" viewBox="0 0 64 64" style="background-color:#123;margin:120;">

<radialGradient id="rg" cx="32" cy="32" r="32" gradientUnits="userSpaceOnUse">
	<stop  offset="0" style="stop-color:#0EF"/>
	<stop  offset="1" style="stop-color:#026"/>
	<animate attributeName="cy" dur="8s" values="32;44;28;32" repeatCount="indefinite"/>
	<animate attributeName="r" dur="6s" values="32;48;32" repeatCount="indefinite"/>
</radialGradient>

<filter id="ds" height="140%">
	<feGaussianBlur in="SourceAlpha" stdDeviation="1.6"/> <!-- shadow blur -->
	<feOffset dx="0" dy="0" result="offsetblur"/> <!-- shadow offset -->
	<feComponentTransfer>
		<feFuncA type="linear" slope=".5"/> <!-- shadow opacity -->
	</feComponentTransfer>
	<feMerge>
		<feMergeNode/> <!-- contains the offset blurred image -->
		<feMergeNode in="SourceGraphic"/> <!-- contains the element that the filter is applied to -->
	</feMerge>

	<feGaussianBlur in="SourceGraphic" stdDeviation=".16"/>
</filter>

<circle fill="url(#rg)" cx="32" cy="32" r="32"/>

<path fill="none" stroke="#FFF" stroke-width="3" stroke-linecap="round" filter="url(#ds)" d="M32.6,56c-4.8,0.2-9.5-1-13.4-3.5c-5.1-3.2-8.5-8.2-9.4-14c-0.9-5.6,0.6-11.6,4.1-16.6c3.4-4.8,8.3-8.1,13.8-9.4c5.3-1.2,10.8-0.3,15.1,2.6c4.2,2.7,6.8,6.8,7.6,11.7c0.7,4.6-0.6,9.5-3.6,13.5C44,44,40,46.6,35.5,47.6c-4.2,0.9-8.6,0-12-2.3c-3.2-2.2-5.2-5.5-5.7-9.3c-0.4-3.6,0.7-7.4,3-10.4c2.2-2.8,5.3-4.7,8.7-5.3c3.2-0.5,6.4,0.2,8.8,2.1c2.3,1.7,3.6,4.2,3.8,7c0.2,2.6-0.8,5.3-2.6,7.3c-1.6,1.9-3.8,3-6.2,3.2c-2.2,0.2-4.3-0.5-5.8-2c-1.3-1.2-1.9-2.9-1.7-4.7c0.1-1.7,1.1-3.4,2.5-4.3c1.2-0.8,2.5-1.1,3.8-0.7">
	<animateTransform attributeName="transform" attributeType="XML" type="rotate" from="0 32 32" to="360 32 32" dur="10s" repeatCount="indefinite"/>
</path>
</svg>