<svg width="422" height="863" viewBox="0 0 422 863" fill="none" xmlns="http://www.w3.org/2000/svg">
<rect width="422" height="863" fill="#172030"/>
<path d="M188.562 278.743C140.58 192.185 42.8616 168.849 0 168V303.353C7.33538 295.149 29.4278 283.665 59.1145 303.353C96.2229 327.962 101.401 459.072 213.589 483.681C303.339 503.369 389.926 565.43 422 594V421.733C364.18 410.135 236.544 365.301 188.562 278.743Z" fill="#3A83F1"/>
<path fill-rule="evenodd" clip-rule="evenodd" d="M392.538 152C402.773 152 412.662 150.693 422 148.258V0H315.516C299.031 16.1369 289 37.4823 289 60.8894C289 111.208 335.356 152 392.538 152Z" fill="#3A83F1"/>
<path fill-rule="evenodd" clip-rule="evenodd" d="M45.4507 657C79.9957 657 108 632.376 108 602C108 571.624 79.9957 547 45.4507 547C27.548 547 11.4019 553.614 0 564.214V639.786C11.4019 650.386 27.548 657 45.4507 657Z" fill="#3A83F1"/>
</svg>
