<svg width="424" height="860" viewBox="0 0 424 860" fill="none" xmlns="http://www.w3.org/2000/svg">
<rect width="424" height="859.459" fill="#172030"/>
<path d="M83.3015 569.447C144.208 564.113 167.915 635.842 308.083 654.512C372.102 663.039 406.444 649.159 424 628.919V350.339C383.047 442.435 234.448 287.796 174.096 221.256C99.9052 139.458 83.8211 262.6 0 237.254V613.506C17.7705 594.6 47.1096 572.617 83.3015 569.447Z" fill="#3A83F1"/>
<path d="M48.0416 111.069C87.7188 111.069 119.884 81.0745 119.884 44.0748C119.884 27.1986 113.192 11.7799 102.148 0H0V93.887C12.7276 104.568 29.5706 111.069 48.0416 111.069Z" fill="#3A83F1"/>
<ellipse cx="60.8232" cy="633.356" rx="34.3784" ry="32.1746" fill="#3A83F1"/>
</svg>
