<svg xmlns="http://www.w3.org/2000/svg" viewBox="0 0 64 64" fill="#FFF">
<rect fill="none" width="64" height="64"/>
<path d="M58.6,43.5v-8.2h0L46.3,21H32V25l-2.1,2v-8.2h-6.1V23h-8.2L5.3,35.3l2.1,0.3v7.9H1.2v4L31.9,64l30.7-14.3v-6.2H58.6z M16.5,25h9.3v-4.1h2v0v10.3l3.5-2.7l2-2.1l0.6-0.6V23h7.7L31,37.2L9.2,33.8L16.5,25z M32,39.4L44.3,23h2l10.3,12.3h0v8.2h0L32,51.7L29.9,51v-9.8l-6.1-0.9v8.5L9.4,43.5v-7.6L32,39.4z M27.8,50.2l-2-0.7v-6.9l2,0.3V50.2z M60.6,45.6v2.8L32,61.7L3.3,46.3v-0.7H9l22.2,8.1l0.7,0.3l0.7-0.2l24.3-8.1L60.6,45.6L60.6,45.6z"/>
<path d="M52.4,35.3l-12.3,2v8.2l12.3-4.1V35.3z M50.4,40l-8.1,2.7v-3.6l8.1-1.4V40z"/>
<polygon points="21.7,45.5 21.7,43.5 11.4,39.4 11.4,41.5"/>
</svg>