<svg width="234" height="80" viewBox="0 0 234 80" fill="none" xmlns="http://www.w3.org/2000/svg">
<path fill-rule="evenodd" clip-rule="evenodd" d="M66.3445 11.1811H11.8L15.7354 0H70.2799L66.3445 11.1811ZM64.3754 16.7704H9.82984L5.89443 27.9515H60.4399L64.3754 16.7704ZM58.48 33.5424H3.93541L0 44.7234H54.5446L58.48 33.5424Z" fill="#C2D4EF"/>
<path fill-rule="evenodd" clip-rule="evenodd" d="M200.025 69.1402H209.943C213.705 69.1402 215.985 68.2555 217.582 66.2665C218.38 65.271 219.52 63.5026 219.52 60.1866C219.52 56.8705 218.38 54.549 216.1 52.8915C214.732 51.896 212.907 51.3438 209.829 51.3438H200.025V69.1402ZM186.914 79.8626V15.9722H229.78L226.018 26.6951H200.025V40.843H210.627C219.178 40.843 223.623 42.833 226.701 45.3752C229.096 47.3652 233.2 51.7866 233.2 60.5186C233.2 69.1407 228.982 73.8936 225.447 76.325C221.343 79.0888 217.012 79.8626 208.234 79.8626H186.914ZM148.952 79.8626V26.6951H129.913V15.9722H182.81L179.048 26.6951H162.176V79.8626H148.952ZM96.1685 41.5065H103.579C105.858 41.5065 106.998 41.5065 108.139 41.1741C111.217 40.2904 113.155 37.6374 113.155 33.9898C113.155 29.6783 111.103 27.8 108.139 26.9154C106.885 26.5839 105.631 26.4731 103.123 26.4731H96.1685V41.5065ZM96.2831 52.56V69.361H105.403C108.139 69.361 110.647 69.1403 112.471 67.4818C114.295 65.8242 115.093 63.7243 115.093 60.9605C115.093 58.8606 114.523 56.8706 113.383 55.4338C111.445 53.1123 109.051 52.56 104.947 52.56H96.2831ZM117.373 45.8184V46.0391C119.881 46.9238 122.274 48.4714 123.529 49.466C127.405 52.5613 129.115 56.6512 129.115 61.9563C129.115 70.6892 124.327 76.9898 116.461 78.9789C114.066 79.6419 111.559 79.8635 106.884 79.8635H83.0574V15.9731H104.148C108.481 15.9731 111.445 16.1947 114.066 16.8577C121.705 18.8477 126.721 23.9321 126.721 32.0011C126.721 36.3126 125.125 39.9602 122.503 42.3915C121.363 43.4969 119.767 44.8239 117.373 45.8184Z" fill="#022D9A"/>
</svg>
