<svg xmlns="http://www.w3.org/2000/svg" viewBox="0 0 96 96">

	<radialGradient id="rg" cx="32" cy="32" r="32" gradientUnits="userSpaceOnUse">
		<stop  offset="0" style="stop-color:#0EF"/>
		<stop  offset="1" style="stop-color:#026"/>
		<animate attributeName="cy" dur="8s" values="32;44;28;32" repeatCount="indefinite"/>
		<animate attributeName="r" dur="6s" values="32;48;32" repeatCount="indefinite"/>
	</radialGradient>

	<circle fill="url(#rg)" cx="48" cy="48" r="48"/>
	<g fill="none" stroke="#FFF" stroke-width="4.5" stroke-linecap="round">
		<path d="M60,64c0,4.4-5.4,8-12,8s-12-3.6-12-8" transform="translate(0 0)">
			<animateTransform attributeName="transform" attributeType="XML" type="translate" to="0 0" dur=".5s" fill="freeze" begin="0"/>
		</path>
		<path d="M60,56c0,4.4-5.4,8-12,8s-12-3.6-12-8" transform="translate(0 8)">
			<animateTransform attributeName="transform" attributeType="XML" type="translate" to="0 0" dur=".5s" fill="freeze" begin="0"/>
		</path>
		<path d="M60,48c0,4.4-5.4,8-12,8s-12-3.6-12-8" transform="translate(0 16)">
			<animateTransform attributeName="transform" attributeType="XML" type="translate" to="0 0" dur=".5s" fill="freeze" begin="0"/>
		</path>
		<path d="M60,40c0,4.4-5.4,8-12,8s-12-3.6-12-8" transform="translate(0 24)">
			<animateTransform attributeName="transform" attributeType="XML" type="translate" to="0 0" dur=".5s" fill="freeze" begin="0"/>
		</path>
		<ellipse cx="48" cy="32" rx="12" ry="8" transform="translate(0 32)">
			<animateTransform attributeName="transform" attributeType="XML" type="translate" to="0 0" dur=".5s" fill="freeze" id="e1" begin="0"/>
		</ellipse>
		<polyline stroke="#F55" stroke-width="0" points="72.5,20 72.5,20">
			<animate attributeName="points" dur=".5s" to="23.5,76 72.5,20" fill="freeze" begin="e1.end+.3s"/>
			<animate attributeName="stroke-width" dur=".1s" to="4.5" fill="freeze" begin="e1.end+.3s"/>
		</polyline>
	</g>
</svg>