<svg width="45" height="45" viewBox="0 0 45 45" fill="none" xmlns="http://www.w3.org/2000/svg">
<g opacity="0.5">
<path d="M20.8113 26.581C20.8113 27.481 21.5363 28.206 22.4363 28.206C23.3363 28.206 24.0613 27.481 24.0613 26.556C24.0613 25.806 24.1613 25.306 24.4363 24.606C24.7863 23.781 25.4863 23.031 26.2363 22.256L26.2478 22.2439C27.4699 20.972 28.8374 19.5487 29.1863 17.256C29.5113 15.081 28.6113 12.831 26.8113 11.406C24.9613 9.93097 22.5113 9.60597 20.2613 10.481C17.3113 11.656 15.6363 14.206 15.7863 17.356C15.8113 18.256 16.6113 18.931 17.4863 18.906C18.3863 18.856 19.0863 18.106 19.0363 17.206C18.9613 15.981 19.3613 14.331 21.4613 13.506C22.6363 13.056 23.8363 13.206 24.7863 13.956C25.6863 14.656 26.1363 15.731 25.9863 16.781C25.7897 18.0342 24.9409 18.9252 23.9623 19.9524L23.9113 20.006C23.0113 20.931 22.0113 21.981 21.4363 23.406C20.9863 24.481 20.8113 25.406 20.8113 26.581Z" fill="#C2D4EF"/>
<path d="M24.625 33.375C24.625 34.5486 23.6736 35.5 22.5 35.5C21.3264 35.5 20.375 34.5486 20.375 33.375C20.375 32.2014 21.3264 31.25 22.5 31.25C23.6736 31.25 24.625 32.2014 24.625 33.375Z" fill="#C2D4EF"/>
<path fill-rule="evenodd" clip-rule="evenodd" d="M22.5 0C10.0736 0 0 10.0736 0 22.5C0 34.9264 10.0736 45 22.5 45C34.9264 45 45 34.9264 45 22.5C45 10.0736 34.9264 0 22.5 0ZM3.25 22.5C3.25 11.8685 11.8685 3.25 22.5 3.25C33.1315 3.25 41.75 11.8685 41.75 22.5C41.75 33.1315 33.1315 41.75 22.5 41.75C11.8685 41.75 3.25 33.1315 3.25 22.5Z" fill="#C2D4EF"/>
</g>
</svg>
