<svg width="45" height="45" viewBox="0 0 45 45" fill="none" xmlns="http://www.w3.org/2000/svg">
<path d="M22.5 34.1249C23.5355 34.1249 24.375 33.2854 24.375 32.2499C24.375 31.2144 23.5355 30.3749 22.5 30.3749C21.4645 30.3749 20.625 31.2144 20.625 32.2499C20.625 33.2854 21.4645 34.1249 22.5 34.1249Z" fill="#6E7F9A"/>
<path d="M22.5 26.9904C23.3975 26.9904 24.125 26.2629 24.125 25.3654V12.4999C24.125 11.6025 23.3975 10.8749 22.5 10.8749C21.6025 10.8749 20.875 11.6025 20.875 12.4999V25.3654C20.875 26.2629 21.6025 26.9904 22.5 26.9904Z" fill="#6E7F9A"/>
<path fill-rule="evenodd" clip-rule="evenodd" d="M22.5 0C10.0736 0 0 10.0736 0 22.5C0 34.9264 10.0736 45 22.5 45C34.9264 45 45 34.9264 45 22.5C45 10.0736 34.9264 0 22.5 0ZM3.25 22.5C3.25 11.8685 11.8685 3.25 22.5 3.25C33.1315 3.25 41.75 11.8685 41.75 22.5C41.75 33.1315 33.1315 41.75 22.5 41.75C11.8685 41.75 3.25 33.1315 3.25 22.5Z" fill="#6E7F9A"/>
</svg>
